<?xml version="1.0" standalone="no"?><!DOCTYPE svg PUBLIC "-//W3C//DTD SVG 1.1//EN" "http://www.w3.org/Graphics/SVG/1.1/DTD/svg11.dtd"><svg t="1705922791993" class="icon" viewBox="0 0 1024 1024" version="1.1" xmlns="http://www.w3.org/2000/svg" p-id="6734" xmlns:xlink="http://www.w3.org/1999/xlink" width="200" height="200"><path d="M511.96318 146.29c181.75 0 349.79 113.33 504.11 339.98a45.71 45.71 0 0 1 0.33 50.96l-0.33 0.5-4.63 6.76C858.39318 766.64 691.89318 877.71 511.96318 877.71c-181.75 0-349.76-113.33-504.04-339.99a45.71 45.71 0 0 1-0.33-50.95l0.33-0.49 4.63-6.76c153-222.15 319.47-333.23 499.41-333.23z m0.04 182.85c-100.99 0-182.86 81.87-182.86 182.86S411.01318 694.86 512.00318 694.86 694.86318 612.99 694.86318 512 612.99318 329.14 512.00318 329.14z m0 91.43c50.49 0 91.43 40.93 91.43 91.43S562.50318 603.43 512.00318 603.43 420.57318 562.5 420.57318 512s40.93-91.43 91.43-91.43z" p-id="6735" fill="#ffffff"></path></svg>