<?xml version="1.0" standalone="no"?><!DOCTYPE svg PUBLIC "-//W3C//DTD SVG 1.1//EN" "http://www.w3.org/Graphics/SVG/1.1/DTD/svg11.dtd"><svg t="1705913516181" class="icon" viewBox="0 0 1184 1024" version="1.1" xmlns="http://www.w3.org/2000/svg" p-id="11489" xmlns:xlink="http://www.w3.org/1999/xlink" width="231.25" height="200"><path d="M594.016 213.12c152.224 0 272.096 117.952 272.096 270.72 0 33.536-5.376 69.696-21.568 96.512l156.256 155.488c82.176-69.696 146.816-155.488 183.2-252C1092.416 246.624 859.392 79.072 588.64 79.072c-76.8 0-146.816 16.096-216.864 37.536l118.528 117.952a266.368 266.368 0 0 1 103.712-21.44zM53.856 68.352l125.28 124.64 21.568 21.44C109.12 284.16 39.04 375.328 0 485.216c91.584 237.248 324.608 404.8 595.36 404.8 82.176 0 161.632-16.096 238.4-42.88l21.568 21.44L1011.584 1024l70.048-69.696L125.28 0 53.888 68.352z m296.352 296.224l82.176 81.76v37.504c0 91.168 70.048 160.864 161.632 160.864 12.128 0 21.568 0 37.728-5.376l82.144 81.76c-37.696 21.44-76.768 33.504-118.528 33.504-152.192 0-272.096-117.952-272.096-270.72 0-45.6 10.784-81.792 26.944-119.296z m231.68-44.256l168.384 167.552v-12.064c0-91.136-70.048-160.832-161.632-160.832 0 5.344 0 5.344-6.72 5.344z" fill="#ffffff" p-id="11490"></path></svg>