<?xml version="1.0" standalone="no"?><!DOCTYPE svg PUBLIC "-//W3C//DTD SVG 1.1//EN" "http://www.w3.org/Graphics/SVG/1.1/DTD/svg11.dtd"><svg t="1705912824124" class="icon" viewBox="0 0 1024 1024" version="1.1" xmlns="http://www.w3.org/2000/svg" p-id="2473" xmlns:xlink="http://www.w3.org/1999/xlink" width="200" height="200"><path d="M892.82 140.29c-9.1 0.31-18.02 0.43-26.76 0.43-229.77 0-331.04-99.53-331.91-100.45l-22.9-23.71-23.06 23.71c-0.9 1.04-100.16 100.45-331.87 100.45-8.75 0-17.62-0.12-26.81-0.43l-32.24-1.04 0 451.36c0 118.19 41.75 290.56 402.63 422.46l11.27 4.12 11.27-4.12c360.89-131.89 402.64-304.27 402.64-422.46L925.08 139.25 892.82 140.29 892.82 140.29zM475.68 707.39 267.74 522.11l55.23-44.95 110.57 82.01c0 0 152.63-158.83 300.07-232.99L754.65 350C754.65 350 570.4 503.56 475.68 707.39L475.68 707.39z" fill="#ffffff" p-id="2474"></path></svg>