<?xml version="1.0" standalone="no"?><!DOCTYPE svg PUBLIC "-//W3C//DTD SVG 1.1//EN" "http://www.w3.org/Graphics/SVG/1.1/DTD/svg11.dtd"><svg t="1705914269486" class="icon" viewBox="0 0 1072 1024" version="1.1" xmlns="http://www.w3.org/2000/svg" p-id="13544" xmlns:xlink="http://www.w3.org/1999/xlink" width="209.375" height="200"><path d="M1057.544213 490.88176a97.502777 97.502777 0 0 1 15.183048 52.284898v334.523966a146.309376 146.309376 0 0 1-146.309376 146.309376H146.312855a146.309376 146.309376 0 0 1-146.309377-146.309376V545.402707a99.379954 99.379954 0 0 1 48.06125-85.936055 97.530382 97.530382 0 0 1 101.892058 1.821966l348.381949 222.114196a69.013857 69.013857 0 0 0 74.093276 0l350.590392-222.611096a97.530382 97.530382 0 0 1 134.632232 30.034831zM780.16372 0a146.309376 146.309376 0 0 1 146.309376 146.309376v205.606082a69.013857 69.013857 0 0 1-32.381301 58.496145l-320.224295 200.637084a69.013857 69.013857 0 0 1-73.154689 0l-321.935838-200.692295A69.013857 69.013857 0 0 1 146.312855 351.805036V146.309376a146.309376 146.309376 0 0 1 146.309376-146.309376z m0 0" fill="#ffffff" p-id="13545"></path></svg>