<?xml version="1.0" standalone="no"?><!DOCTYPE svg PUBLIC "-//W3C//DTD SVG 1.1//EN" "http://www.w3.org/Graphics/SVG/1.1/DTD/svg11.dtd"><svg t="1705922508549" class="icon" viewBox="0 0 1024 1024" version="1.1" xmlns="http://www.w3.org/2000/svg" p-id="3931" xmlns:xlink="http://www.w3.org/1999/xlink" width="200" height="200"><path d="M0 0h1024v1024H0z" fill="#ffffff" fill-opacity="0" p-id="3932"></path><path d="M884.096 288c19.84 0 35.84 3.712 48.192 11.136 12.352 7.488 20.48 17.28 24.64 29.44 4.096 12.16 4.096 25.92 0 41.088-4.096 15.232-12.992 30.272-26.688 45.184-55.424 60.864-108.8 120.448-160 178.56-51.328 58.24-100.928 112.64-148.8 163.456a142.72 142.72 0 0 1-99.52 43.136 149.568 149.568 0 0 1-53.376-8.64 104.192 104.192 0 0 1-43.072-28.416c-26.688-29.12-54.4-58.88-83.2-89.344L254.08 582.272c-28.736-30.4-57.28-60.352-85.632-89.792a2832.64 2832.64 0 0 1-79.552-85.76c-11.648-12.8-19.2-26.24-22.592-40.064a65.024 65.024 0 0 1 1.024-38.08 55.744 55.744 0 0 1 23.68-28.416c11.52-7.424 26.624-11.136 45.12-11.136 23.936 0 56.96-0.192 99.008-0.512C277.12 288.192 323.2 288 373.12 288H884.032z" fill="#ffffff" p-id="3933"></path></svg>