<?xml version="1.0" standalone="no"?><!DOCTYPE svg PUBLIC "-//W3C//DTD SVG 1.1//EN" "http://www.w3.org/Graphics/SVG/1.1/DTD/svg11.dtd"><svg t="1705911799607" class="icon" viewBox="0 0 1024 1024" version="1.1" xmlns="http://www.w3.org/2000/svg" p-id="5197" xmlns:xlink="http://www.w3.org/1999/xlink" width="200" height="200"><path d="M501.58 2.12c142.84 0 258.28 113.69 258.28 254.2s-115.44 254.2-258.28 254.2S243.3 396.82 243.3 256.31 359.33 2.12 501.58 2.12z m0 0c142.84 0 258.28 113.69 258.28 254.2s-115.44 254.2-258.28 254.2S243.3 396.82 243.3 256.31 359.33 2.12 501.58 2.12zM404.8 595.05h215.14C804.17 595.05 954 742 954 923.29v21c0 71.71-149.25 74-334.07 74H404.8c-184.24 0-334.07 0-334.07-74v-21C71.31 742 220.57 595.05 404.8 595.05z" fill="#ffffff" p-id="5198"></path></svg>